{"title":"Ripper Street S04 720p BluRay HEVC DD2.0 x265","uid":15856096,"size":3759632041,"categoryP":"video","categoryS":"hd___tv_shows","magnet":"?xt=urn:btih:cc89b770bf12b9c197344747d62d1c896f8cec65&amp;dn=Ripper+Street+S04+720p+BluRay+HEVC+DD2.0+x265&amp;tr=udp%3A%2F%2Ftracker.leechers-paradise.org%3A6969&amp;tr=udp%3A%2F%2Fzer0day.ch%3A1337&amp;tr=udp%3A%2F%2Fopen.demonii.com%3A1337&amp;tr=udp%3A%2F%2Ftracker.coppersurfer.tk%3A6969&amp;tr=udp%3A%2F%2Fexodus.desync.com%3A6969","seeders":6,"leechers":8,"uploader":"nayhtut","files":14,"time":1474242368,"description":"[Screenshots Gallery Link]\r\n\r\n[http://postimg.org/gallery/q74nrgq8]\r\n\r\n\r\nSource: Ripper Street S04 720p BluRay x264-MAYHEM (18.48 GB)\r\n\r\nContains: Ripper Street Season Four - Episode 01 to 06\r\n\r\nFormat                                   : Matroska\r\nFormat version                           : Version 4 / Version 2\r\nFile size                                : 3.50 GiB\r\nDuration                                 : Various\r\nOverall bit rate                         : 1 157 Kbps\r\nWriting application                      : Lavf57.25.100\r\nWriting library                          : Lavf57.25.100\r\n\r\nVideo\r\n\r\nID                                       : 1\r\nFormat                                   : V_MPEGH/ISO/HEVC\r\nCodec ID                                 : V_MPEGH/ISO/HEVC\r\nDuration                                 : 1h 1mn\r\nBit rate                                 : 814 Kbps\r\nWidth                                    : 1 280 pixels\r\nHeight                                   : 720 pixels\r\nDisplay aspect ratio                     : 16:9\r\nFrame rate                               : 25.000 fps\r\nBits/(Pixel*Frame)                       : 0.035\r\nStream size                              : 361 MiB (70%)\r\nWriting library                          : Lavc57.48.101 libx265\r\nLanguage                                 : English\r\nDefault                                  : Yes\r\nForced                                   : No\r\nDURATION                                 : 01:01:58.051000000\r\n\r\nAudio\r\n\r\nID                                       : 2\r\nFormat                                   : AC-3\r\nFormat/Info                              : Audio Coding 3\r\nMode extension                           : CM (complete main)\r\nFormat settings, Endianness              : Big\r\nCodec ID                                 : A_AC3\r\nDuration                                 : 1h 1mn\r\nBit rate mode                            : Constant\r\nBit rate                                 : 320 Kbps\r\nChannel(s)                               : 2 channels\r\nChannel positions                        : Front: L R\r\nSampling rate                            : 48.0 KHz\r\nBit depth                                : 16 bits\r\nCompression mode                         : Lossy\r\nStream size                              : 142 MiB (28%)\r\nWriting library                          : Lavc57.24.102 ac3\r\nLanguage                                 : English\r\nDefault                                  : Yes\r\nForced                                   : No\r\nDURATION                                 : 01:01:58.079000000","torrent":{"xt":"urn:btih:cc89b770bf12b9c197344747d62d1c896f8cec65","amp;dn":"Ripper+Street+S04+720p+BluRay+HEVC+DD2.0+x265","amp;tr":["udp%3A%2F%2Ftracker.leechers-paradise.org%3A6969","udp%3A%2F%2Fzer0day.ch%3A1337","udp%3A%2F%2Fopen.demonii.com%3A1337","udp%3A%2F%2Ftracker.coppersurfer.tk%3A6969","udp%3A%2F%2Fexodus.desync.com%3A6969"],"infoHash":"cc89b770bf12b9c197344747d62d1c896f8cec65","infoHashBuffer":{"type":"Buffer","data":[204,137,183,112,191,18,185,193,151,52,71,71,214,45,28,137,111,140,236,101]},"announce":[],"urlList":[]}}